<svg width="31" height="23" viewBox="0 0 31 23" fill="none" xmlns="http://www.w3.org/2000/svg">
<path d="M7.5 13C8.32843 13 9 12.3284 9 11.5C9 10.6716 8.32843 10 7.5 10C6.67157 10 6 10.6716 6 11.5C6 12.3284 6.67157 13 7.5 13Z" fill="#FBFBFF" stroke="#FBFBFF" stroke-linecap="round" stroke-linejoin="round"/>
<path d="M15.5 13C16.3284 13 17 12.3284 17 11.5C17 10.6716 16.3284 10 15.5 10C14.6716 10 14 10.6716 14 11.5C14 12.3284 14.6716 13 15.5 13Z" fill="#FBFBFF" stroke="#FBFBFF" stroke-linecap="round" stroke-linejoin="round"/>
<path d="M23.5 13C24.3284 13 25 12.3284 25 11.5C25 10.6716 24.3284 10 23.5 10C22.6716 10 22 10.6716 22 11.5C22 12.3284 22.6716 13 23.5 13Z" fill="#FBFBFF" stroke="#FBFBFF" stroke-linecap="round" stroke-linejoin="round"/>
</svg>
