<svg width="23" height="24" viewBox="0 0 23 24" fill="none" xmlns="http://www.w3.org/2000/svg">
<path d="M11.75 20.4375C16.4099 20.4375 20.1875 16.6599 20.1875 12C20.1875 7.3401 16.4099 3.5625 11.75 3.5625C7.0901 3.5625 3.3125 7.3401 3.3125 12C3.3125 16.6599 7.0901 20.4375 11.75 20.4375Z" stroke="#FBFBFF" stroke-width="1.5" stroke-miterlimit="10"/>
<path d="M19.323 15.7241L14.5518 12.7896C14.4681 12.7382 14.3747 12.7048 14.2774 12.6917L12.2718 12.4213C12.1212 12.401 11.9681 12.4301 11.8354 12.5041C11.7027 12.5781 11.5975 12.6931 11.5356 12.8319L10.3316 15.5336C10.2757 15.6592 10.2577 15.7985 10.2801 15.9342C10.3025 16.0699 10.3642 16.1961 10.4576 16.2971L12.1099 18.0843C12.1848 18.1653 12.2396 18.2629 12.2699 18.369C12.3001 18.4751 12.3049 18.5868 12.284 18.6952L11.9474 20.4351C13.6491 20.3405 17.5065 19.266 19.323 15.7241Z" fill="#FBFBFF" stroke="#FBFBFF" stroke-linecap="round" stroke-linejoin="round"/>
<path d="M13.8996 3.8392L14.72 5.30859C14.7975 5.44749 14.8257 5.6086 14.7998 5.76557C14.774 5.92255 14.6957 6.06612 14.5777 6.17283L12.2125 8.31187C12.1723 8.34817 12.1281 8.37972 12.0807 8.40588L11.0048 9.00005C10.9007 9.05753 10.7838 9.08767 10.6649 9.08767H8.78884C8.65049 9.08767 8.51522 9.12849 8.39996 9.20501C8.2847 9.28152 8.19457 9.39034 8.14086 9.51784L7.40898 11.2553" fill="#FBFBFF"/>
<path d="M6.20871 5.63718L5.42259 7.49604C5.3525 7.66178 5.34863 7.84809 5.41177 8.01661L6.4217 10.7121C6.46306 10.8224 6.5315 10.9206 6.62074 10.9977C6.70998 11.0747 6.81714 11.128 6.93238 11.1528L8.81587 11.5576C8.92038 11.5801 9.0184 11.6261 9.10246 11.6921C9.18653 11.7581 9.25443 11.8425 9.301 11.9387L9.63548 12.6297C9.69304 12.7486 9.78294 12.8489 9.89487 12.9191C10.0068 12.9892 10.1362 13.0264 10.2684 13.0264H11.449" fill="#FBFBFF"/>
<path d="M13.8996 3.8392L14.72 5.30859C14.7975 5.44749 14.8257 5.6086 14.7998 5.76557C14.774 5.92255 14.6957 6.06612 14.5777 6.17283L12.2125 8.31187C12.1723 8.34817 12.1281 8.37972 12.0807 8.40588L11.0048 9.00005C10.9007 9.05753 10.7838 9.08767 10.6649 9.08767H8.78884C8.65049 9.08767 8.51522 9.12849 8.39996 9.20501C8.2847 9.28152 8.19457 9.39034 8.14086 9.51784L7.40898 11.2553L6.93238 11.1528C6.81714 11.128 6.70998 11.0747 6.62074 10.9977C6.5315 10.9206 6.46306 10.8224 6.4217 10.7121L5.41177 8.01661C5.34863 7.84809 5.3525 7.66178 5.42259 7.49604L6.20871 5.63718C7.14514 4.66134 9.99432 2.93557 13.8996 3.8392Z" fill="#FBFBFF"/>
<path d="M6.93238 11.1528C6.81714 11.128 6.70998 11.0747 6.62074 10.9977C6.5315 10.9206 6.46306 10.8224 6.4217 10.7121L5.41177 8.01661C5.34863 7.84809 5.3525 7.66178 5.42259 7.49604L6.20871 5.63718C7.14514 4.66134 9.99432 2.93557 13.8996 3.8392L14.72 5.30859C14.7975 5.44749 14.8257 5.6086 14.7998 5.76557C14.774 5.92255 14.6957 6.06612 14.5777 6.17283L12.2125 8.31187C12.1723 8.34817 12.1281 8.37972 12.0807 8.40588L11.0048 9.00005C10.9007 9.05753 10.7838 9.08767 10.6649 9.08767H8.78884C8.65049 9.08767 8.51522 9.12849 8.39996 9.20501C8.2847 9.28152 8.19457 9.39034 8.14086 9.51784L7.40898 11.2553L6.93238 11.1528ZM6.93238 11.1528L8.81587 11.5576C8.92038 11.5801 9.0184 11.6261 9.10246 11.6921C9.18653 11.7581 9.25443 11.8425 9.301 11.9387L9.63548 12.6297C9.69304 12.7486 9.78294 12.8489 9.89487 12.9191C10.0068 12.9892 10.1362 13.0264 10.2684 13.0264H11.449" stroke="#FBFBFF" stroke-linecap="round" stroke-linejoin="round"/>
</svg>
