<svg width="20" height="20" viewBox="0 0 20 20" fill="none" xmlns="http://www.w3.org/2000/svg">
<path d="M18.3333 7.49996V12.5C18.3333 12.6833 18.3333 12.8666 18.3166 13.0416C17.6333 12.2 16.5916 11.6666 15.4166 11.6666C14.5333 11.6666 13.7166 11.975 13.075 12.4916C12.2083 13.175 11.6666 14.2333 11.6666 15.4166C11.6666 16.5916 12.2 17.6333 13.0416 18.3166C12.8666 18.3333 12.6833 18.3333 12.5 18.3333H7.49996C3.33329 18.3333 1.66663 16.6666 1.66663 12.5V7.49996C1.66663 3.33329 3.33329 1.66663 7.49996 1.66663H12.5C16.6666 1.66663 18.3333 3.33329 18.3333 7.49996Z" stroke="#FBFBFF" stroke-width="1.5" stroke-linecap="round" stroke-linejoin="round"/>
<path d="M2.09998 5.92505H17.9" stroke="#FBFBFF" stroke-width="1.5" stroke-linecap="round" stroke-linejoin="round"/>
<path d="M7.09998 1.7583V5.80829" stroke="#FBFBFF" stroke-width="1.5" stroke-linecap="round" stroke-linejoin="round"/>
<path d="M12.9 1.7583V5.43333" stroke="#FBFBFF" stroke-width="1.5" stroke-linecap="round" stroke-linejoin="round"/>
<path d="M19.1666 15.4166C19.1666 16.5416 18.6666 17.5416 17.8916 18.2333C17.225 18.8083 16.3666 19.1666 15.4166 19.1666C14.5166 19.1666 13.6833 18.8499 13.0416 18.3166C12.2 17.6333 11.6666 16.5916 11.6666 15.4166C11.6666 14.2333 12.2083 13.175 13.075 12.4916C13.7166 11.975 14.5333 11.6666 15.4166 11.6666C16.5916 11.6666 17.6333 12.2 18.3166 13.0416C18.85 13.6833 19.1666 14.5166 19.1666 15.4166Z" stroke="#FBFBFF" stroke-width="1.5" stroke-miterlimit="10" stroke-linecap="round" stroke-linejoin="round"/>
<path d="M15.6499 14.2417V15.65L14.4833 16.35" stroke="#FBFBFF" stroke-width="1.5" stroke-miterlimit="10" stroke-linecap="round" stroke-linejoin="round"/>
</svg>
