<svg width="15" height="51" viewBox="0 0 15 51" fill="none" xmlns="http://www.w3.org/2000/svg">
<path d="M7.5 19C8.32843 19 9 18.3284 9 17.5C9 16.6716 8.32843 16 7.5 16C6.67157 16 6 16.6716 6 17.5C6 18.3284 6.67157 19 7.5 19Z" fill="#FBFBFF" stroke="#FBFBFF" stroke-linecap="round" stroke-linejoin="round"/>
<path d="M7.5 27C8.32843 27 9 26.3284 9 25.5C9 24.6716 8.32843 24 7.5 24C6.67157 24 6 24.6716 6 25.5C6 26.3284 6.67157 27 7.5 27Z" fill="#FBFBFF" stroke="#FBFBFF" stroke-linecap="round" stroke-linejoin="round"/>
<path d="M7.5 35C8.32843 35 9 34.3284 9 33.5C9 32.6716 8.32843 32 7.5 32C6.67157 32 6 32.6716 6 33.5C6 34.3284 6.67157 35 7.5 35Z" fill="#FBFBFF" stroke="#FBFBFF" stroke-linecap="round" stroke-linejoin="round"/>
</svg>
