<svg width="20" height="20" viewBox="0 0 20 20" fill="none" xmlns="http://www.w3.org/2000/svg">
<path d="M13.093 2.50056C12.0078 2.48485 10.8762 2.79943 9.99921 3.68265C9.11542 2.80115 7.97298 2.50049 6.91714 2.50049C4.29355 2.50049 1.66699 4.6742 1.66699 7.75047C1.66699 10.7165 3.56411 13.1859 5.44047 14.8647C6.38987 15.7141 7.36361 16.3884 8.1544 16.8529C8.54955 17.0849 8.90571 17.2685 9.19632 17.3964C9.34112 17.4601 9.477 17.5132 9.59802 17.5516C9.70331 17.585 9.85173 17.6254 10.0006 17.6254C10.1494 17.6254 10.2978 17.585 10.4031 17.5516C10.5241 17.5132 10.66 17.4601 10.8048 17.3964C11.0954 17.2685 11.4516 17.0849 11.8467 16.8529C12.6375 16.3884 13.6113 15.7141 14.5607 14.8647C16.437 13.1859 18.3341 10.7165 18.3341 7.75047C18.3341 4.66691 15.7015 2.5383 13.093 2.50056Z" fill="#F04438"/>
</svg>
